<?xml version="1.0" standalone="no"?><!DOCTYPE svg PUBLIC "-//W3C//DTD SVG 1.1//EN" "http://www.w3.org/Graphics/SVG/1.1/DTD/svg11.dtd"><svg t="1523195833390" class="icon" style="" viewBox="0 0 1024 1024" version="1.1" xmlns="http://www.w3.org/2000/svg" p-id="6207" xmlns:xlink="http://www.w3.org/1999/xlink" width="64" height="64"><defs><style type="text/css"></style></defs><path d="M1017.286365 985.002397 671.57481 639.323353c60.341435-67.949137 97.339577-157.030781 97.339577-254.841776 0-212.00781-172.457511-384.465322-384.449066-384.465322C172.457511 0.016256 0 172.473767 0 384.481577c0 211.991555 172.457511 384.449066 384.465322 384.449066 97.794739 0 186.892639-36.998143 254.841776-97.339577l345.679044 345.711555c4.437826 4.437826 10.306161 6.681123 16.141984 6.681123 5.852079 0 11.720413-2.243297 16.15824-6.681123C1026.227041 1008.345689 1026.227041 993.926817 1017.286365 985.002397zM384.465322 723.251917c-186.81136 0-338.786595-151.95898-338.786595-338.77034S197.653962 45.694982 384.465322 45.694982c186.795104 0 338.77034 151.975235 338.77034 338.786595 0 85.196514-31.828806 162.931627-83.928563 222.525296-10.062324 11.476577-20.823647 22.237899-32.300224 32.300224C547.413205 691.423111 469.661835 723.251917 384.465322 723.251917z" p-id="6208" fill="#ADADAD"></path></svg>